<svg xmlns="http://www.w3.org/2000/svg" xmlns:xlink="http://www.w3.org/1999/xlink" width="40" zoomAndPan="magnify" viewBox="0 0 30 30.000001" height="40" preserveAspectRatio="xMidYMid meet" version="1.2"><defs><clipPath id="84d01bf7ff"><path d="M 2.515625 1.878906 L 27.484375 1.878906 L 27.484375 26.84375 L 2.515625 26.84375 Z M 2.515625 1.878906 "/></clipPath><clipPath id="430bf81a5b"><path d="M 15 1.878906 C 8.105469 1.878906 2.515625 7.46875 2.515625 14.363281 C 2.515625 21.257812 8.105469 26.84375 15 26.84375 C 21.894531 26.84375 27.484375 21.257812 27.484375 14.363281 C 27.484375 7.46875 21.894531 1.878906 15 1.878906 Z M 15 1.878906 "/></clipPath></defs><g id="75227e8567"><g clip-rule="nonzero" clip-path="url(#84d01bf7ff)"><g clip-rule="nonzero" clip-path="url(#430bf81a5b)"><path style=" stroke:none;fill-rule:nonzero;fill:#ffffff;fill-opacity:1;" d="M 2.515625 1.878906 L 27.484375 1.878906 L 27.484375 26.84375 L 2.515625 26.84375 Z M 2.515625 1.878906 "/></g></g><g style="fill:#000000;fill-opacity:1;"><g transform="translate(5.219875, 13.589696)"><path style="stroke:none" d="M 4.078125 -0.65625 C 4.078125 -0.582031 4.015625 -0.5 3.890625 -0.40625 C 3.859375 -0.34375 3.804688 -0.289062 3.734375 -0.25 C 3.609375 -0.164062 3.503906 -0.113281 3.421875 -0.09375 C 3.085938 0 2.828125 0.0625 2.640625 0.09375 C 2.453125 0.132812 2.273438 0.148438 2.109375 0.140625 C 2.066406 0.140625 2.023438 0.140625 1.984375 0.140625 C 1.953125 0.140625 1.921875 0.140625 1.890625 0.140625 C 1.867188 0.148438 1.84375 0.160156 1.8125 0.171875 C 1.789062 0.191406 1.769531 0.207031 1.75 0.21875 C 1.632812 0.3125 1.460938 0.34375 1.234375 0.3125 C 1.015625 0.28125 0.84375 0.207031 0.71875 0.09375 C 0.632812 0.0195312 0.570312 -0.0195312 0.53125 -0.03125 C 0.5 -0.0390625 0.453125 -0.03125 0.390625 0 C 0.296875 0.0625 0.226562 0.0625 0.1875 0 C 0.144531 -0.0703125 0.15625 -0.160156 0.21875 -0.265625 C 0.25 -0.316406 0.242188 -0.421875 0.203125 -0.578125 C 0.171875 -0.742188 0.171875 -0.84375 0.203125 -0.875 C 0.234375 -0.90625 0.3125 -0.882812 0.4375 -0.8125 L 0.65625 -0.6875 L 0.859375 -0.890625 C 0.941406 -0.972656 1.09375 -1.144531 1.3125 -1.40625 C 1.539062 -1.675781 1.6875 -1.847656 1.75 -1.921875 L 1.921875 -2.09375 L 1.90625 -2.390625 C 1.882812 -2.578125 1.851562 -2.710938 1.8125 -2.796875 C 1.738281 -2.929688 1.722656 -3.0625 1.765625 -3.1875 C 1.796875 -3.300781 1.890625 -3.441406 2.046875 -3.609375 C 2.109375 -3.671875 2.160156 -3.710938 2.203125 -3.734375 C 2.242188 -3.765625 2.296875 -3.78125 2.359375 -3.78125 C 2.429688 -3.78125 2.519531 -3.753906 2.625 -3.703125 C 2.738281 -3.648438 2.796875 -3.601562 2.796875 -3.5625 C 2.828125 -3.34375 2.828125 -3.21875 2.796875 -3.1875 C 2.773438 -3.164062 2.738281 -3.066406 2.6875 -2.890625 C 2.632812 -2.734375 2.566406 -2.597656 2.484375 -2.484375 C 2.398438 -2.367188 2.359375 -2.296875 2.359375 -2.265625 C 2.359375 -2.234375 2.335938 -2.195312 2.296875 -2.15625 C 2.253906 -2.101562 2.25 -2.003906 2.28125 -1.859375 C 2.425781 -1.117188 2.4375 -0.628906 2.3125 -0.390625 C 2.257812 -0.273438 2.25 -0.210938 2.28125 -0.203125 C 2.289062 -0.179688 2.363281 -0.1875 2.5 -0.21875 C 2.59375 -0.25 2.734375 -0.273438 2.921875 -0.296875 C 2.960938 -0.304688 3.003906 -0.316406 3.046875 -0.328125 C 3.097656 -0.347656 3.148438 -0.367188 3.203125 -0.390625 C 3.253906 -0.410156 3.296875 -0.425781 3.328125 -0.4375 C 3.378906 -0.445312 3.410156 -0.460938 3.421875 -0.484375 C 3.429688 -0.484375 3.441406 -0.488281 3.453125 -0.5 C 3.460938 -0.507812 3.46875 -0.515625 3.46875 -0.515625 C 3.476562 -0.523438 3.488281 -0.535156 3.5 -0.546875 C 3.507812 -0.554688 3.519531 -0.5625 3.53125 -0.5625 C 3.5625 -0.59375 3.617188 -0.625 3.703125 -0.65625 C 3.785156 -0.6875 3.84375 -0.707031 3.875 -0.71875 C 3.90625 -0.726562 3.925781 -0.738281 3.9375 -0.75 C 3.957031 -0.757812 3.976562 -0.765625 4 -0.765625 C 4.03125 -0.765625 4.050781 -0.753906 4.0625 -0.734375 C 4.070312 -0.722656 4.078125 -0.695312 4.078125 -0.65625 Z M 1.828125 -0.359375 C 1.953125 -0.484375 2.023438 -0.59375 2.046875 -0.6875 C 2.078125 -0.78125 2.082031 -0.945312 2.0625 -1.1875 C 2.039062 -1.457031 2.015625 -1.597656 1.984375 -1.609375 C 1.960938 -1.617188 1.882812 -1.546875 1.75 -1.390625 C 1.644531 -1.285156 1.492188 -1.117188 1.296875 -0.890625 C 1.117188 -0.722656 1.03125 -0.613281 1.03125 -0.5625 C 1.03125 -0.519531 1.085938 -0.460938 1.203125 -0.390625 C 1.328125 -0.316406 1.4375 -0.265625 1.53125 -0.234375 C 1.582031 -0.222656 1.625 -0.222656 1.65625 -0.234375 C 1.695312 -0.253906 1.753906 -0.296875 1.828125 -0.359375 Z M 2.1875 -2.6875 C 2.21875 -2.695312 2.273438 -2.804688 2.359375 -3.015625 C 2.453125 -3.222656 2.488281 -3.335938 2.46875 -3.359375 C 2.4375 -3.441406 2.375 -3.441406 2.28125 -3.359375 C 2.21875 -3.304688 2.171875 -3.234375 2.140625 -3.140625 C 2.097656 -3.015625 2.097656 -2.882812 2.140625 -2.75 C 2.160156 -2.707031 2.175781 -2.6875 2.1875 -2.6875 Z M 2.1875 -2.6875 "/></g></g><g style="fill:#000000;fill-opacity:1;"><g transform="translate(8.886728, 13.589696)"><path style="stroke:none" d="M 2.375 -0.453125 C 2.414062 -0.484375 2.453125 -0.492188 2.484375 -0.484375 C 2.523438 -0.484375 2.546875 -0.457031 2.546875 -0.40625 C 2.546875 -0.382812 2.539062 -0.367188 2.53125 -0.359375 C 2.53125 -0.347656 2.523438 -0.335938 2.515625 -0.328125 C 2.503906 -0.316406 2.492188 -0.300781 2.484375 -0.28125 C 2.472656 -0.269531 2.460938 -0.257812 2.453125 -0.25 C 2.441406 -0.238281 2.425781 -0.226562 2.40625 -0.21875 C 2.394531 -0.207031 2.382812 -0.195312 2.375 -0.1875 C 2.363281 -0.1875 2.351562 -0.179688 2.34375 -0.171875 C 2.332031 -0.160156 2.320312 -0.15625 2.3125 -0.15625 C 2.257812 -0.125 2.207031 -0.0976562 2.15625 -0.078125 C 2.15625 -0.0664062 2.128906 -0.0507812 2.078125 -0.03125 L 2.0625 0 C 1.988281 0.0625 1.890625 0.0976562 1.765625 0.109375 C 1.679688 0.117188 1.617188 0.117188 1.578125 0.109375 C 1.535156 0.109375 1.476562 0.0859375 1.40625 0.046875 C 1.289062 -0.00390625 1.210938 -0.046875 1.171875 -0.078125 C 1.148438 -0.0976562 1.128906 -0.109375 1.109375 -0.109375 C 1.097656 -0.109375 1.066406 -0.0859375 1.015625 -0.046875 C 0.867188 0.0546875 0.691406 0.113281 0.484375 0.125 C 0.273438 0.144531 0.140625 0.109375 0.078125 0.015625 C 0.0351562 -0.046875 0.015625 -0.164062 0.015625 -0.34375 C 0.015625 -0.519531 0.0351562 -0.648438 0.078125 -0.734375 C 0.117188 -0.796875 0.148438 -0.84375 0.171875 -0.875 C 0.191406 -0.90625 0.210938 -0.9375 0.234375 -0.96875 C 0.253906 -1 0.285156 -1.039062 0.328125 -1.09375 C 0.484375 -1.289062 0.609375 -1.425781 0.703125 -1.5 C 0.765625 -1.550781 0.84375 -1.59375 0.9375 -1.625 C 1.03125 -1.664062 1.128906 -1.691406 1.234375 -1.703125 C 1.335938 -1.710938 1.429688 -1.703125 1.515625 -1.671875 C 1.609375 -1.617188 1.664062 -1.53125 1.6875 -1.40625 C 1.707031 -1.289062 1.703125 -1.175781 1.671875 -1.0625 C 1.648438 -0.945312 1.613281 -0.84375 1.5625 -0.75 C 1.519531 -0.65625 1.488281 -0.550781 1.46875 -0.4375 C 1.445312 -0.332031 1.445312 -0.257812 1.46875 -0.21875 C 1.519531 -0.125 1.675781 -0.117188 1.9375 -0.203125 C 1.945312 -0.203125 1.957031 -0.203125 1.96875 -0.203125 C 1.976562 -0.210938 1.988281 -0.21875 2 -0.21875 C 2.15625 -0.300781 2.28125 -0.378906 2.375 -0.453125 Z M 1.25 -1.140625 C 1.28125 -1.160156 1.296875 -1.175781 1.296875 -1.1875 C 1.296875 -1.195312 1.289062 -1.207031 1.28125 -1.21875 C 1.25 -1.25 1.203125 -1.269531 1.140625 -1.28125 C 1.085938 -1.289062 1.039062 -1.289062 1 -1.28125 C 0.945312 -1.269531 0.863281 -1.21875 0.75 -1.125 C 0.644531 -1.039062 0.578125 -0.96875 0.546875 -0.90625 C 0.492188 -0.832031 0.453125 -0.769531 0.421875 -0.71875 C 0.378906 -0.65625 0.347656 -0.566406 0.328125 -0.453125 C 0.316406 -0.335938 0.328125 -0.265625 0.359375 -0.234375 C 0.378906 -0.203125 0.429688 -0.1875 0.515625 -0.1875 C 0.597656 -0.1875 0.675781 -0.203125 0.75 -0.234375 C 0.820312 -0.265625 0.875 -0.316406 0.90625 -0.390625 C 0.96875 -0.503906 1.019531 -0.597656 1.0625 -0.671875 C 1.125 -0.773438 1.15625 -0.847656 1.15625 -0.890625 C 1.15625 -0.910156 1.164062 -0.929688 1.1875 -0.953125 C 1.207031 -0.984375 1.210938 -1.015625 1.203125 -1.046875 C 1.191406 -1.085938 1.207031 -1.117188 1.25 -1.140625 Z M 1.25 -1.140625 "/></g></g><g style="fill:#000000;fill-opacity:1;"><g transform="translate(11.202829, 13.589696)"><path style="stroke:none" d="M 2.15625 -0.5625 C 2.207031 -0.613281 2.253906 -0.632812 2.296875 -0.625 C 2.335938 -0.613281 2.359375 -0.570312 2.359375 -0.5 C 2.359375 -0.476562 2.351562 -0.457031 2.34375 -0.4375 C 2.332031 -0.414062 2.316406 -0.394531 2.296875 -0.375 C 2.285156 -0.363281 2.269531 -0.347656 2.25 -0.328125 C 2.226562 -0.304688 2.207031 -0.289062 2.1875 -0.28125 C 2.175781 -0.269531 2.15625 -0.253906 2.125 -0.234375 C 2.101562 -0.222656 2.085938 -0.210938 2.078125 -0.203125 C 2.054688 -0.171875 2.019531 -0.140625 1.96875 -0.109375 C 1.914062 -0.078125 1.863281 -0.0625 1.8125 -0.0625 C 1.75 -0.03125 1.703125 -0.00390625 1.671875 0.015625 C 1.660156 0.0546875 1.554688 0.160156 1.359375 0.328125 C 1.285156 0.390625 1.222656 0.441406 1.171875 0.484375 C 1.128906 0.523438 1.070312 0.582031 1 0.65625 C 0.925781 0.738281 0.867188 0.816406 0.828125 0.890625 C 0.785156 0.960938 0.765625 1.035156 0.765625 1.109375 C 0.765625 1.128906 0.722656 1.160156 0.640625 1.203125 C 0.585938 1.234375 0.546875 1.25 0.515625 1.25 C 0.492188 1.25 0.453125 1.234375 0.390625 1.203125 C 0.316406 1.171875 0.269531 1.117188 0.25 1.046875 C 0.226562 0.972656 0.222656 0.910156 0.234375 0.859375 C 0.253906 0.816406 0.285156 0.769531 0.328125 0.71875 C 0.367188 0.664062 0.410156 0.625 0.453125 0.59375 C 0.503906 0.5625 0.550781 0.519531 0.59375 0.46875 C 0.644531 0.425781 0.679688 0.382812 0.703125 0.34375 C 0.734375 0.257812 0.765625 0.203125 0.796875 0.171875 C 0.835938 0.140625 0.851562 0.09375 0.84375 0.03125 C 0.832031 -0.03125 0.804688 -0.0703125 0.765625 -0.09375 C 0.722656 -0.113281 0.648438 -0.101562 0.546875 -0.0625 C 0.390625 0 0.253906 -0.0078125 0.140625 -0.09375 C 0.0234375 -0.175781 -0.0390625 -0.316406 -0.0625 -0.515625 C -0.0703125 -0.617188 -0.0546875 -0.753906 -0.015625 -0.921875 C 0.015625 -1.097656 0.03125 -1.222656 0.03125 -1.296875 C 0.03125 -1.398438 0.046875 -1.503906 0.078125 -1.609375 C 0.109375 -1.722656 0.160156 -1.804688 0.234375 -1.859375 C 0.316406 -1.921875 0.398438 -1.925781 0.484375 -1.875 C 0.566406 -1.832031 0.613281 -1.765625 0.625 -1.671875 C 0.625 -1.617188 0.613281 -1.546875 0.59375 -1.453125 C 0.5625 -1.378906 0.515625 -1.253906 0.453125 -1.078125 C 0.390625 -0.910156 0.347656 -0.78125 0.328125 -0.6875 C 0.304688 -0.601562 0.296875 -0.535156 0.296875 -0.484375 C 0.296875 -0.429688 0.3125 -0.40625 0.34375 -0.40625 C 0.4375 -0.40625 0.570312 -0.503906 0.75 -0.703125 C 0.925781 -0.910156 1.03125 -1.085938 1.0625 -1.234375 C 1.070312 -1.316406 1.09375 -1.367188 1.125 -1.390625 C 1.144531 -1.429688 1.171875 -1.507812 1.203125 -1.625 C 1.242188 -1.75 1.316406 -1.867188 1.421875 -1.984375 C 1.484375 -2.046875 1.535156 -2.085938 1.578125 -2.109375 C 1.609375 -2.128906 1.65625 -2.140625 1.71875 -2.140625 C 1.800781 -2.140625 1.851562 -2.125 1.875 -2.09375 C 1.882812 -2.0625 1.882812 -2.015625 1.875 -1.953125 C 1.863281 -1.898438 1.847656 -1.847656 1.828125 -1.796875 C 1.816406 -1.753906 1.800781 -1.703125 1.78125 -1.640625 C 1.757812 -1.585938 1.742188 -1.546875 1.734375 -1.515625 C 1.734375 -1.472656 1.726562 -1.441406 1.71875 -1.421875 C 1.707031 -1.410156 1.691406 -1.378906 1.671875 -1.328125 C 1.617188 -1.253906 1.570312 -1.160156 1.53125 -1.046875 C 1.5 -0.941406 1.46875 -0.820312 1.4375 -0.6875 C 1.414062 -0.550781 1.390625 -0.453125 1.359375 -0.390625 C 1.328125 -0.253906 1.316406 -0.1875 1.328125 -0.1875 C 1.328125 -0.175781 1.390625 -0.195312 1.515625 -0.25 C 1.648438 -0.3125 1.785156 -0.375 1.921875 -0.4375 C 2.054688 -0.507812 2.132812 -0.550781 2.15625 -0.5625 Z M 2.15625 -0.5625 "/></g></g><g style="fill:#000000;fill-opacity:1;"><g transform="translate(13.213204, 13.589696)"><path style="stroke:none" d=""/></g></g><g style="fill:#000000;fill-opacity:1;"><g transform="translate(14.904886, 13.589696)"><path style="stroke:none" d="M 3.25 -1.71875 C 3.332031 -1.832031 3.375 -1.910156 3.375 -1.953125 C 3.375 -1.972656 3.40625 -2.03125 3.46875 -2.125 C 3.53125 -2.21875 3.5625 -2.273438 3.5625 -2.296875 C 3.5625 -2.328125 3.609375 -2.390625 3.703125 -2.484375 C 3.796875 -2.585938 3.898438 -2.691406 4.015625 -2.796875 C 4.140625 -2.898438 4.234375 -2.972656 4.296875 -3.015625 C 4.429688 -3.085938 4.519531 -3.113281 4.5625 -3.09375 C 4.613281 -3.082031 4.707031 -3.09375 4.84375 -3.125 C 5.082031 -3.1875 5.1875 -3.128906 5.15625 -2.953125 C 5.15625 -2.910156 5.144531 -2.878906 5.125 -2.859375 C 5.101562 -2.847656 5.070312 -2.832031 5.03125 -2.8125 C 4.988281 -2.800781 4.914062 -2.785156 4.8125 -2.765625 C 4.570312 -2.710938 4.425781 -2.671875 4.375 -2.640625 C 4.3125 -2.609375 4.191406 -2.484375 4.015625 -2.265625 C 3.835938 -2.046875 3.71875 -1.875 3.65625 -1.75 C 3.625 -1.675781 3.59375 -1.597656 3.5625 -1.515625 C 3.519531 -1.410156 3.484375 -1.320312 3.453125 -1.25 C 3.410156 -1.175781 3.363281 -1.101562 3.3125 -1.03125 C 3.226562 -0.914062 3.148438 -0.789062 3.078125 -0.65625 C 3.035156 -0.5625 2.914062 -0.4375 2.71875 -0.28125 C 2.519531 -0.125 2.378906 -0.046875 2.296875 -0.046875 C 2.203125 -0.046875 2.097656 -0.078125 1.984375 -0.140625 C 1.878906 -0.210938 1.8125 -0.285156 1.78125 -0.359375 C 1.738281 -0.453125 1.703125 -0.503906 1.671875 -0.515625 C 1.648438 -0.535156 1.539062 -0.445312 1.34375 -0.25 C 1.144531 -0.0507812 1.03125 0.046875 1 0.046875 C 0.914062 0.046875 0.8125 0.0195312 0.6875 -0.03125 C 0.570312 -0.09375 0.492188 -0.148438 0.453125 -0.203125 C 0.378906 -0.304688 0.359375 -0.5 0.390625 -0.78125 C 0.421875 -1.0625 0.488281 -1.257812 0.59375 -1.375 C 0.707031 -1.53125 0.859375 -1.882812 1.046875 -2.4375 C 1.242188 -2.988281 1.3125 -3.28125 1.25 -3.3125 C 1.226562 -3.332031 1.164062 -3.328125 1.0625 -3.296875 C 0.96875 -3.265625 0.921875 -3.242188 0.921875 -3.234375 C 0.921875 -3.210938 0.9375 -3.179688 0.96875 -3.140625 C 1.007812 -3.078125 1 -2.984375 0.9375 -2.859375 C 0.875 -2.734375 0.785156 -2.617188 0.671875 -2.515625 C 0.554688 -2.410156 0.457031 -2.359375 0.375 -2.359375 C 0.300781 -2.359375 0.25 -2.394531 0.21875 -2.46875 C 0.1875 -2.539062 0.171875 -2.675781 0.171875 -2.875 C 0.171875 -2.957031 0.171875 -3.019531 0.171875 -3.0625 C 0.179688 -3.101562 0.195312 -3.140625 0.21875 -3.171875 C 0.238281 -3.203125 0.269531 -3.238281 0.3125 -3.28125 C 0.488281 -3.445312 0.726562 -3.578125 1.03125 -3.671875 C 1.164062 -3.703125 1.257812 -3.710938 1.3125 -3.703125 C 1.375 -3.691406 1.441406 -3.648438 1.515625 -3.578125 C 1.554688 -3.523438 1.582031 -3.476562 1.59375 -3.4375 C 1.613281 -3.394531 1.617188 -3.316406 1.609375 -3.203125 C 1.609375 -3.054688 1.582031 -2.878906 1.53125 -2.671875 C 1.488281 -2.460938 1.441406 -2.289062 1.390625 -2.15625 C 1.347656 -2.03125 1.316406 -1.945312 1.296875 -1.90625 C 1.273438 -1.863281 1.203125 -1.734375 1.078125 -1.515625 C 0.984375 -1.335938 0.925781 -1.234375 0.90625 -1.203125 C 0.851562 -1.140625 0.773438 -0.894531 0.671875 -0.46875 C 0.660156 -0.394531 0.6875 -0.34375 0.75 -0.3125 C 0.789062 -0.289062 0.828125 -0.285156 0.859375 -0.296875 C 0.890625 -0.316406 0.945312 -0.359375 1.03125 -0.421875 C 1.195312 -0.578125 1.335938 -0.738281 1.453125 -0.90625 C 1.578125 -1.070312 1.710938 -1.296875 1.859375 -1.578125 C 2.046875 -1.941406 2.171875 -2.164062 2.234375 -2.25 C 2.304688 -2.351562 2.375 -2.484375 2.4375 -2.640625 C 2.507812 -2.828125 2.578125 -2.960938 2.640625 -3.046875 C 2.703125 -3.128906 2.757812 -3.171875 2.8125 -3.171875 C 2.894531 -3.171875 2.953125 -3.144531 2.984375 -3.09375 C 3.015625 -3.050781 3.007812 -2.992188 2.96875 -2.921875 C 2.957031 -2.890625 2.914062 -2.78125 2.84375 -2.59375 C 2.769531 -2.40625 2.710938 -2.289062 2.671875 -2.25 C 2.609375 -2.195312 2.578125 -2.148438 2.578125 -2.109375 C 2.578125 -2.078125 2.546875 -2.015625 2.484375 -1.921875 C 2.429688 -1.828125 2.40625 -1.765625 2.40625 -1.734375 C 2.40625 -1.679688 2.390625 -1.644531 2.359375 -1.625 C 2.304688 -1.59375 2.238281 -1.453125 2.15625 -1.203125 C 2.082031 -0.960938 2.046875 -0.785156 2.046875 -0.671875 C 2.054688 -0.617188 2.066406 -0.566406 2.078125 -0.515625 C 2.097656 -0.472656 2.117188 -0.4375 2.140625 -0.40625 C 2.171875 -0.375 2.203125 -0.359375 2.234375 -0.359375 C 2.253906 -0.359375 2.285156 -0.375 2.328125 -0.40625 C 2.367188 -0.4375 2.410156 -0.46875 2.453125 -0.5 C 2.503906 -0.539062 2.546875 -0.582031 2.578125 -0.625 C 2.609375 -0.675781 2.625 -0.707031 2.625 -0.71875 C 2.625 -0.78125 2.675781 -0.859375 2.78125 -0.953125 C 2.84375 -1.015625 2.914062 -1.109375 3 -1.234375 C 3.082031 -1.359375 3.125 -1.445312 3.125 -1.5 C 3.125 -1.519531 3.164062 -1.59375 3.25 -1.71875 Z M 3.25 -1.71875 "/></g></g><g style="fill:#000000;fill-opacity:1;"><g transform="translate(19.31289, 13.589696)"><path style="stroke:none" d="M 0.890625 -2.25 C 0.816406 -2.226562 0.75 -2.253906 0.6875 -2.328125 C 0.632812 -2.367188 0.609375 -2.394531 0.609375 -2.40625 C 0.609375 -2.425781 0.625 -2.453125 0.65625 -2.484375 C 0.707031 -2.515625 0.773438 -2.53125 0.859375 -2.53125 C 0.941406 -2.53125 0.992188 -2.515625 1.015625 -2.484375 C 1.046875 -2.441406 1.046875 -2.394531 1.015625 -2.34375 C 0.992188 -2.289062 0.953125 -2.257812 0.890625 -2.25 Z M 1.546875 -0.46875 C 1.554688 -0.4375 1.550781 -0.40625 1.53125 -0.375 C 1.519531 -0.351562 1.476562 -0.3125 1.40625 -0.25 C 1.289062 -0.15625 1.15625 -0.0664062 1 0.015625 C 0.882812 0.078125 0.757812 0.101562 0.625 0.09375 C 0.5 0.0820312 0.378906 0.046875 0.265625 -0.015625 C 0.160156 -0.078125 0.0664062 -0.160156 -0.015625 -0.265625 C -0.128906 -0.398438 -0.164062 -0.582031 -0.125 -0.8125 C -0.113281 -0.832031 -0.101562 -0.890625 -0.09375 -0.984375 C -0.0820312 -1.085938 -0.0664062 -1.175781 -0.046875 -1.25 C -0.0234375 -1.332031 -0.0078125 -1.390625 0 -1.421875 C 0.03125 -1.441406 0.0664062 -1.457031 0.109375 -1.46875 C 0.160156 -1.476562 0.210938 -1.476562 0.265625 -1.46875 C 0.328125 -1.457031 0.378906 -1.441406 0.421875 -1.421875 C 0.472656 -1.398438 0.507812 -1.367188 0.53125 -1.328125 C 0.550781 -1.285156 0.550781 -1.242188 0.53125 -1.203125 C 0.46875 -1.078125 0.4375 -0.992188 0.4375 -0.953125 C 0.4375 -0.898438 0.414062 -0.84375 0.375 -0.78125 C 0.332031 -0.726562 0.304688 -0.664062 0.296875 -0.59375 C 0.285156 -0.53125 0.296875 -0.488281 0.328125 -0.46875 C 0.359375 -0.457031 0.375 -0.425781 0.375 -0.375 C 0.375 -0.320312 0.40625 -0.269531 0.46875 -0.21875 C 0.507812 -0.175781 0.539062 -0.148438 0.5625 -0.140625 C 0.59375 -0.140625 0.644531 -0.148438 0.71875 -0.171875 C 0.8125 -0.203125 0.941406 -0.273438 1.109375 -0.390625 C 1.234375 -0.484375 1.328125 -0.535156 1.390625 -0.546875 C 1.453125 -0.554688 1.503906 -0.53125 1.546875 -0.46875 Z M 1.546875 -0.46875 "/></g></g><g style="fill:#000000;fill-opacity:1;"><g transform="translate(20.548763, 13.589696)"><path style="stroke:none" d="M 1.875 -0.453125 C 1.9375 -0.484375 1.984375 -0.492188 2.015625 -0.484375 C 2.054688 -0.472656 2.078125 -0.429688 2.078125 -0.359375 C 2.066406 -0.347656 2.054688 -0.332031 2.046875 -0.3125 C 2.046875 -0.289062 2.035156 -0.269531 2.015625 -0.25 C 2.003906 -0.238281 1.988281 -0.226562 1.96875 -0.21875 C 1.957031 -0.207031 1.941406 -0.191406 1.921875 -0.171875 C 1.898438 -0.160156 1.878906 -0.148438 1.859375 -0.140625 C 1.847656 -0.140625 1.832031 -0.128906 1.8125 -0.109375 C 1.789062 -0.0976562 1.773438 -0.09375 1.765625 -0.09375 C 1.703125 -0.0625 1.640625 -0.0351562 1.578125 -0.015625 C 1.566406 -0.015625 1.53125 0 1.46875 0.03125 C 1.414062 0.0703125 1.351562 0.113281 1.28125 0.15625 C 1.207031 0.195312 1.148438 0.226562 1.109375 0.25 C 1.035156 0.269531 0.960938 0.285156 0.890625 0.296875 C 0.828125 0.304688 0.753906 0.3125 0.671875 0.3125 C 0.597656 0.320312 0.523438 0.316406 0.453125 0.296875 C 0.390625 0.273438 0.332031 0.25 0.28125 0.21875 C 0.226562 0.164062 0.179688 0.09375 0.140625 0 C 0.109375 -0.09375 0.0859375 -0.191406 0.078125 -0.296875 C 0.0664062 -0.398438 0.0625 -0.492188 0.0625 -0.578125 C 0.0625 -0.671875 0.0664062 -0.765625 0.078125 -0.859375 C 0.078125 -0.867188 0.0859375 -0.972656 0.109375 -1.171875 C 0.140625 -1.367188 0.164062 -1.5625 0.1875 -1.75 L 0.21875 -2.046875 C 0.195312 -2.054688 0.144531 -2.066406 0.0625 -2.078125 C 0.0078125 -2.078125 -0.0390625 -2.078125 -0.09375 -2.078125 C -0.21875 -2.078125 -0.300781 -2.082031 -0.34375 -2.09375 C -0.351562 -2.09375 -0.367188 -2.09375 -0.390625 -2.09375 C -0.410156 -2.09375 -0.425781 -2.09375 -0.4375 -2.09375 C -0.457031 -2.09375 -0.476562 -2.09375 -0.5 -2.09375 C -0.519531 -2.09375 -0.535156 -2.09375 -0.546875 -2.09375 C -0.554688 -2.101562 -0.5625 -2.109375 -0.5625 -2.109375 C -0.570312 -2.148438 -0.554688 -2.179688 -0.515625 -2.203125 C -0.515625 -2.203125 -0.5 -2.210938 -0.46875 -2.234375 C -0.4375 -2.253906 -0.40625 -2.269531 -0.375 -2.28125 C -0.34375 -2.300781 -0.296875 -2.316406 -0.234375 -2.328125 C -0.179688 -2.335938 -0.125 -2.34375 -0.0625 -2.34375 C 0.125 -2.332031 0.238281 -2.328125 0.28125 -2.328125 C 0.332031 -2.335938 0.378906 -2.363281 0.421875 -2.40625 C 0.484375 -2.46875 0.570312 -2.628906 0.6875 -2.890625 C 0.6875 -2.898438 0.691406 -2.914062 0.703125 -2.9375 C 0.742188 -3.039062 0.78125 -3.117188 0.8125 -3.171875 C 0.84375 -3.234375 0.878906 -3.304688 0.921875 -3.390625 C 0.972656 -3.472656 1.023438 -3.546875 1.078125 -3.609375 C 1.140625 -3.671875 1.207031 -3.71875 1.28125 -3.75 C 1.476562 -3.84375 1.578125 -3.835938 1.578125 -3.734375 C 1.578125 -3.660156 1.53125 -3.515625 1.4375 -3.296875 C 1.414062 -3.234375 1.394531 -3.1875 1.375 -3.15625 C 1.363281 -3.101562 1.351562 -3.046875 1.34375 -2.984375 C 1.332031 -2.929688 1.3125 -2.875 1.28125 -2.8125 C 1.21875 -2.707031 1.164062 -2.617188 1.125 -2.546875 C 1.082031 -2.460938 1.066406 -2.410156 1.078125 -2.390625 C 1.085938 -2.367188 1.210938 -2.347656 1.453125 -2.328125 C 1.617188 -2.304688 1.71875 -2.289062 1.75 -2.28125 C 1.78125 -2.269531 1.796875 -2.25 1.796875 -2.21875 C 1.785156 -2.164062 1.757812 -2.144531 1.71875 -2.15625 C 1.695312 -2.15625 1.65625 -2.15625 1.59375 -2.15625 C 1.53125 -2.15625 1.460938 -2.148438 1.390625 -2.140625 C 1.316406 -2.140625 1.242188 -2.132812 1.171875 -2.125 C 1.085938 -2.113281 1.019531 -2.109375 0.96875 -2.109375 C 0.945312 -2.097656 0.910156 -2.015625 0.859375 -1.859375 C 0.816406 -1.710938 0.769531 -1.53125 0.71875 -1.3125 C 0.664062 -1.09375 0.628906 -0.945312 0.609375 -0.875 C 0.484375 -0.488281 0.5 -0.226562 0.65625 -0.09375 C 0.726562 -0.03125 0.796875 0 0.859375 0 C 0.890625 0 0.925781 -0.015625 0.96875 -0.046875 C 0.976562 -0.0546875 1.003906 -0.0664062 1.046875 -0.078125 C 1.085938 -0.0976562 1.128906 -0.113281 1.171875 -0.125 C 1.222656 -0.144531 1.269531 -0.164062 1.3125 -0.1875 C 1.363281 -0.207031 1.394531 -0.21875 1.40625 -0.21875 C 1.601562 -0.289062 1.757812 -0.367188 1.875 -0.453125 Z M 1.875 -0.453125 "/></g></g><g style="fill:#000000;fill-opacity:1;"><g transform="translate(22.377558, 13.589696)"><path style="stroke:none" d="M 2.375 -0.5625 C 2.425781 -0.613281 2.472656 -0.632812 2.515625 -0.625 C 2.554688 -0.613281 2.578125 -0.570312 2.578125 -0.5 C 2.578125 -0.488281 2.570312 -0.472656 2.5625 -0.453125 C 2.5625 -0.429688 2.550781 -0.410156 2.53125 -0.390625 C 2.519531 -0.378906 2.507812 -0.363281 2.5 -0.34375 C 2.488281 -0.332031 2.472656 -0.316406 2.453125 -0.296875 C 2.429688 -0.285156 2.410156 -0.273438 2.390625 -0.265625 C 2.378906 -0.253906 2.363281 -0.242188 2.34375 -0.234375 C 2.320312 -0.222656 2.304688 -0.210938 2.296875 -0.203125 C 2.296875 -0.203125 2.289062 -0.203125 2.28125 -0.203125 C 2.28125 -0.203125 2.28125 -0.195312 2.28125 -0.1875 C 2.28125 -0.1875 2.269531 -0.179688 2.25 -0.171875 C 2.238281 -0.160156 2.234375 -0.15625 2.234375 -0.15625 C 2.148438 -0.09375 2.070312 -0.0507812 2 -0.03125 C 1.9375 -0.0078125 1.851562 0 1.75 0 C 1.5 0.03125 1.3125 -0.0195312 1.1875 -0.15625 C 1.0625 -0.300781 0.972656 -0.566406 0.921875 -0.953125 C 0.910156 -1.078125 0.894531 -1.140625 0.875 -1.140625 C 0.863281 -1.140625 0.78125 -1.066406 0.625 -0.921875 C 0.53125 -0.835938 0.460938 -0.769531 0.421875 -0.71875 C 0.398438 -0.707031 0.378906 -0.679688 0.359375 -0.640625 C 0.347656 -0.609375 0.332031 -0.570312 0.3125 -0.53125 C 0.300781 -0.488281 0.296875 -0.457031 0.296875 -0.4375 C 0.285156 -0.425781 0.265625 -0.390625 0.234375 -0.328125 L 0.1875 -0.1875 C 0.175781 -0.164062 0.164062 -0.128906 0.15625 -0.078125 C 0.15625 -0.0234375 0.144531 0.015625 0.125 0.046875 C 0.113281 0.078125 0.0859375 0.09375 0.046875 0.09375 C -0.0351562 0.113281 -0.109375 0.078125 -0.171875 -0.015625 C -0.210938 -0.0664062 -0.234375 -0.101562 -0.234375 -0.125 C -0.234375 -0.15625 -0.222656 -0.207031 -0.203125 -0.28125 C -0.191406 -0.300781 -0.179688 -0.316406 -0.171875 -0.328125 C -0.171875 -0.347656 -0.164062 -0.375 -0.15625 -0.40625 C -0.144531 -0.4375 -0.132812 -0.457031 -0.125 -0.46875 C -0.125 -0.476562 -0.117188 -0.492188 -0.109375 -0.515625 C -0.0976562 -0.546875 -0.0859375 -0.566406 -0.078125 -0.578125 C -0.078125 -0.597656 -0.0703125 -0.617188 -0.0625 -0.640625 C -0.0507812 -0.671875 -0.0390625 -0.691406 -0.03125 -0.703125 C -0.0195312 -0.722656 -0.0078125 -0.742188 0 -0.765625 C 0.0078125 -0.796875 0.0195312 -0.820312 0.03125 -0.84375 C 0.0703125 -0.925781 0.101562 -1.050781 0.125 -1.21875 C 0.15625 -1.394531 0.175781 -1.5 0.1875 -1.53125 C 0.226562 -1.695312 0.304688 -1.945312 0.421875 -2.28125 C 0.453125 -2.34375 0.476562 -2.4375 0.5 -2.5625 C 0.53125 -2.6875 0.5625 -2.800781 0.59375 -2.90625 C 0.625 -3.007812 0.660156 -3.117188 0.703125 -3.234375 C 0.753906 -3.347656 0.816406 -3.441406 0.890625 -3.515625 C 0.960938 -3.597656 1.046875 -3.65625 1.140625 -3.6875 C 1.234375 -3.695312 1.304688 -3.6875 1.359375 -3.65625 C 1.410156 -3.632812 1.445312 -3.59375 1.46875 -3.53125 C 1.488281 -3.476562 1.5 -3.410156 1.5 -3.328125 C 1.5 -3.253906 1.492188 -3.1875 1.484375 -3.125 C 1.472656 -3.0625 1.460938 -3.003906 1.453125 -2.953125 C 1.421875 -2.859375 1.375 -2.753906 1.3125 -2.640625 C 1.257812 -2.515625 1.222656 -2.425781 1.203125 -2.375 C 1.160156 -2.28125 1.109375 -2.179688 1.046875 -2.078125 C 1.015625 -2.035156 0.96875 -1.96875 0.90625 -1.875 C 0.851562 -1.78125 0.8125 -1.707031 0.78125 -1.65625 C 0.726562 -1.59375 0.671875 -1.523438 0.609375 -1.453125 C 0.597656 -1.453125 0.582031 -1.441406 0.5625 -1.421875 C 0.539062 -1.398438 0.519531 -1.378906 0.5 -1.359375 C 0.488281 -1.335938 0.476562 -1.316406 0.46875 -1.296875 C 0.46875 -1.296875 0.46875 -1.289062 0.46875 -1.28125 C 0.476562 -1.269531 0.488281 -1.265625 0.5 -1.265625 C 0.5 -1.265625 0.503906 -1.269531 0.515625 -1.28125 C 0.535156 -1.289062 0.5625 -1.3125 0.59375 -1.34375 C 0.632812 -1.382812 0.671875 -1.410156 0.703125 -1.421875 C 0.734375 -1.441406 0.765625 -1.457031 0.796875 -1.46875 C 0.816406 -1.46875 0.835938 -1.46875 0.859375 -1.46875 C 0.960938 -1.488281 1.046875 -1.476562 1.109375 -1.4375 C 1.171875 -1.40625 1.226562 -1.347656 1.28125 -1.265625 C 1.320312 -1.179688 1.34375 -1.082031 1.34375 -0.96875 C 1.34375 -0.875 1.359375 -0.757812 1.390625 -0.625 C 1.410156 -0.488281 1.441406 -0.390625 1.484375 -0.328125 C 1.503906 -0.285156 1.523438 -0.257812 1.546875 -0.25 C 1.578125 -0.25 1.632812 -0.253906 1.71875 -0.265625 C 1.820312 -0.273438 1.90625 -0.289062 1.96875 -0.3125 C 2.132812 -0.40625 2.269531 -0.488281 2.375 -0.5625 Z M 0.9375 -2.828125 C 0.925781 -2.816406 0.914062 -2.800781 0.90625 -2.78125 C 0.90625 -2.769531 0.898438 -2.753906 0.890625 -2.734375 C 0.878906 -2.710938 0.867188 -2.695312 0.859375 -2.6875 C 0.804688 -2.570312 0.765625 -2.453125 0.734375 -2.328125 C 0.722656 -2.285156 0.707031 -2.238281 0.6875 -2.1875 C 0.675781 -2.144531 0.65625 -2.085938 0.625 -2.015625 C 0.601562 -1.953125 0.585938 -1.90625 0.578125 -1.875 C 0.554688 -1.84375 0.554688 -1.816406 0.578125 -1.796875 C 0.585938 -1.796875 0.601562 -1.800781 0.625 -1.8125 C 0.664062 -1.851562 0.695312 -1.894531 0.71875 -1.9375 C 0.75 -1.988281 0.773438 -2.046875 0.796875 -2.109375 C 0.828125 -2.179688 0.847656 -2.234375 0.859375 -2.265625 C 0.929688 -2.398438 0.992188 -2.566406 1.046875 -2.765625 C 1.054688 -2.773438 1.066406 -2.796875 1.078125 -2.828125 C 1.085938 -2.859375 1.097656 -2.882812 1.109375 -2.90625 C 1.117188 -2.9375 1.125 -2.96875 1.125 -3 C 1.132812 -3.03125 1.128906 -3.050781 1.109375 -3.0625 C 1.097656 -3.082031 1.078125 -3.078125 1.046875 -3.046875 C 1.023438 -3.023438 1 -2.976562 0.96875 -2.90625 C 0.957031 -2.882812 0.945312 -2.859375 0.9375 -2.828125 Z M 0.5 -1.265625 Z M 0.5 -1.265625 "/></g></g><g style="fill:#000000;fill-opacity:1;"><g transform="translate(8.906312, 18.53068)"><path style="stroke:none" d="M 1.28125 -2.125 C 1.425781 -2.445312 1.5 -2.632812 1.5 -2.6875 C 1.5 -2.707031 1.507812 -2.726562 1.53125 -2.75 C 1.550781 -2.769531 1.566406 -2.789062 1.578125 -2.8125 C 1.597656 -2.832031 1.609375 -2.859375 1.609375 -2.890625 C 1.585938 -2.941406 1.519531 -2.953125 1.40625 -2.921875 C 1.300781 -2.890625 1.234375 -2.859375 1.203125 -2.828125 C 1.109375 -2.742188 1 -2.71875 0.875 -2.75 C 0.757812 -2.78125 0.703125 -2.851562 0.703125 -2.96875 C 0.703125 -3.007812 0.753906 -3.066406 0.859375 -3.140625 C 0.960938 -3.210938 1.046875 -3.25 1.109375 -3.25 C 1.148438 -3.25 1.234375 -3.273438 1.359375 -3.328125 C 1.492188 -3.390625 1.566406 -3.421875 1.578125 -3.421875 C 1.628906 -3.429688 1.816406 -3.429688 2.140625 -3.421875 C 2.472656 -3.410156 2.722656 -3.394531 2.890625 -3.375 C 3.046875 -3.351562 3.210938 -3.269531 3.390625 -3.125 C 3.609375 -2.96875 3.710938 -2.800781 3.703125 -2.625 C 3.703125 -2.445312 3.585938 -2.191406 3.359375 -1.859375 C 3.253906 -1.691406 3.164062 -1.570312 3.09375 -1.5 C 3.03125 -1.414062 2.976562 -1.351562 2.9375 -1.3125 C 2.894531 -1.28125 2.851562 -1.265625 2.8125 -1.265625 C 2.75 -1.265625 2.691406 -1.238281 2.640625 -1.1875 C 2.535156 -1.070312 2.347656 -0.96875 2.078125 -0.875 C 1.816406 -0.78125 1.609375 -0.738281 1.453125 -0.75 C 1.398438 -0.75 1.359375 -0.75 1.328125 -0.75 C 1.296875 -0.757812 1.265625 -0.753906 1.234375 -0.734375 C 1.203125 -0.722656 1.175781 -0.707031 1.15625 -0.6875 C 1.132812 -0.664062 1.109375 -0.628906 1.078125 -0.578125 C 1.054688 -0.523438 1.03125 -0.472656 1 -0.421875 C 0.976562 -0.367188 0.953125 -0.296875 0.921875 -0.203125 C 0.878906 -0.078125 0.84375 0.0078125 0.8125 0.0625 C 0.789062 0.113281 0.769531 0.148438 0.75 0.171875 C 0.726562 0.191406 0.695312 0.203125 0.65625 0.203125 C 0.582031 0.203125 0.519531 0.15625 0.46875 0.0625 C 0.4375 0.0078125 0.425781 -0.0390625 0.4375 -0.09375 C 0.445312 -0.144531 0.492188 -0.257812 0.578125 -0.4375 C 0.703125 -0.695312 0.753906 -0.84375 0.734375 -0.875 C 0.710938 -0.894531 0.617188 -0.894531 0.453125 -0.875 C 0.328125 -0.875 0.242188 -0.878906 0.203125 -0.890625 C 0.171875 -0.898438 0.132812 -0.9375 0.09375 -1 C 0.0507812 -1.0625 0.03125 -1.101562 0.03125 -1.125 C 0.03125 -1.144531 0.0546875 -1.1875 0.109375 -1.25 C 0.160156 -1.332031 0.28125 -1.40625 0.46875 -1.46875 C 0.664062 -1.53125 0.789062 -1.539062 0.84375 -1.5 C 0.875 -1.476562 0.914062 -1.476562 0.96875 -1.5 C 1.03125 -1.53125 1.0625 -1.566406 1.0625 -1.609375 C 1.0625 -1.648438 1.132812 -1.820312 1.28125 -2.125 Z M 3.265625 -2.6875 C 3.242188 -2.78125 3.222656 -2.835938 3.203125 -2.859375 C 3.179688 -2.890625 3.132812 -2.929688 3.0625 -2.984375 C 2.96875 -3.023438 2.828125 -3.050781 2.640625 -3.0625 C 2.378906 -3.09375 2.195312 -3.082031 2.09375 -3.03125 C 2 -2.976562 1.953125 -2.878906 1.953125 -2.734375 C 1.953125 -2.617188 1.929688 -2.550781 1.890625 -2.53125 C 1.859375 -2.507812 1.84375 -2.472656 1.84375 -2.421875 C 1.84375 -2.347656 1.6875 -1.992188 1.375 -1.359375 C 1.3125 -1.210938 1.347656 -1.140625 1.484375 -1.140625 C 1.585938 -1.140625 1.707031 -1.171875 1.84375 -1.234375 C 2.382812 -1.453125 2.800781 -1.785156 3.09375 -2.234375 C 3.175781 -2.347656 3.226562 -2.4375 3.25 -2.5 C 3.269531 -2.5625 3.273438 -2.625 3.265625 -2.6875 Z M 3.265625 -2.6875 "/></g></g><g style="fill:#000000;fill-opacity:1;"><g transform="translate(12.239649, 18.53068)"><path style="stroke:none" d="M 2.171875 -0.71875 C 2.203125 -0.695312 2.21875 -0.648438 2.21875 -0.578125 C 2.21875 -0.503906 2.175781 -0.429688 2.09375 -0.359375 C 2.0625 -0.335938 2.023438 -0.316406 1.984375 -0.296875 C 1.972656 -0.296875 1.960938 -0.289062 1.953125 -0.28125 C 1.921875 -0.257812 1.890625 -0.25 1.859375 -0.25 C 1.785156 -0.25 1.71875 -0.28125 1.65625 -0.34375 C 1.632812 -0.351562 1.613281 -0.378906 1.59375 -0.421875 L 1.578125 -0.4375 C 1.554688 -0.476562 1.535156 -0.5 1.515625 -0.5 C 1.503906 -0.507812 1.484375 -0.507812 1.453125 -0.5 C 1.410156 -0.476562 1.367188 -0.414062 1.328125 -0.3125 C 1.296875 -0.257812 1.273438 -0.226562 1.265625 -0.21875 C 1.222656 -0.144531 1.179688 -0.101562 1.140625 -0.09375 C 1.097656 -0.0703125 1.039062 -0.0351562 0.96875 0.015625 C 0.875 0.0664062 0.785156 0.0976562 0.703125 0.109375 C 0.597656 0.109375 0.523438 0.117188 0.484375 0.140625 C 0.472656 0.140625 0.457031 0.140625 0.4375 0.140625 C 0.414062 0.140625 0.394531 0.132812 0.375 0.125 C 0.34375 0.113281 0.300781 0.078125 0.25 0.015625 C 0.1875 -0.0351562 0.140625 -0.0820312 0.109375 -0.125 C 0.0859375 -0.164062 0.0664062 -0.242188 0.046875 -0.359375 C 0.015625 -0.535156 0.0078125 -0.675781 0.03125 -0.78125 C 0.0507812 -0.882812 0.101562 -1.007812 0.1875 -1.15625 C 0.300781 -1.34375 0.410156 -1.476562 0.515625 -1.5625 C 0.609375 -1.632812 0.734375 -1.691406 0.890625 -1.734375 C 0.960938 -1.742188 1.023438 -1.769531 1.078125 -1.8125 C 1.160156 -1.863281 1.234375 -1.882812 1.296875 -1.875 C 1.367188 -1.851562 1.445312 -1.800781 1.53125 -1.71875 C 1.570312 -1.664062 1.601562 -1.625 1.625 -1.59375 C 1.644531 -1.570312 1.65625 -1.546875 1.65625 -1.515625 C 1.664062 -1.484375 1.671875 -1.441406 1.671875 -1.390625 C 1.671875 -1.171875 1.679688 -1.003906 1.703125 -0.890625 C 1.703125 -0.816406 1.710938 -0.757812 1.734375 -0.71875 C 1.765625 -0.675781 1.8125 -0.628906 1.875 -0.578125 L 1.890625 -0.59375 C 1.929688 -0.625 1.960938 -0.644531 1.984375 -0.65625 C 2.054688 -0.71875 2.117188 -0.738281 2.171875 -0.71875 Z M 1.3125 -1.34375 C 1.3125 -1.445312 1.300781 -1.5 1.28125 -1.5 C 1.28125 -1.5 1.273438 -1.492188 1.265625 -1.484375 C 1.253906 -1.460938 1.253906 -1.414062 1.265625 -1.34375 C 1.273438 -1.28125 1.285156 -1.242188 1.296875 -1.234375 C 1.304688 -1.253906 1.3125 -1.289062 1.3125 -1.34375 Z M 1.203125 -0.78125 C 1.210938 -0.832031 1.210938 -0.875 1.203125 -0.90625 C 1.191406 -0.925781 1.160156 -0.960938 1.109375 -1.015625 C 1.023438 -1.097656 0.984375 -1.160156 0.984375 -1.203125 C 0.984375 -1.242188 0.972656 -1.285156 0.953125 -1.328125 C 0.929688 -1.378906 0.910156 -1.410156 0.890625 -1.421875 C 0.867188 -1.429688 0.851562 -1.4375 0.84375 -1.4375 C 0.832031 -1.4375 0.820312 -1.4375 0.8125 -1.4375 C 0.789062 -1.425781 0.738281 -1.378906 0.65625 -1.296875 C 0.59375 -1.234375 0.53125 -1.148438 0.46875 -1.046875 C 0.414062 -0.941406 0.375 -0.84375 0.34375 -0.75 C 0.320312 -0.664062 0.316406 -0.601562 0.328125 -0.5625 C 0.347656 -0.519531 0.359375 -0.457031 0.359375 -0.375 C 0.367188 -0.3125 0.378906 -0.257812 0.390625 -0.21875 C 0.410156 -0.195312 0.429688 -0.179688 0.453125 -0.171875 C 0.484375 -0.160156 0.523438 -0.15625 0.578125 -0.15625 C 0.609375 -0.15625 0.632812 -0.15625 0.65625 -0.15625 C 0.675781 -0.15625 0.695312 -0.15625 0.71875 -0.15625 C 0.726562 -0.164062 0.742188 -0.175781 0.765625 -0.1875 C 0.773438 -0.195312 0.789062 -0.207031 0.8125 -0.21875 C 0.832031 -0.226562 0.851562 -0.242188 0.875 -0.265625 C 0.96875 -0.335938 1.019531 -0.394531 1.03125 -0.4375 C 1.050781 -0.488281 1.082031 -0.539062 1.125 -0.59375 C 1.164062 -0.632812 1.191406 -0.695312 1.203125 -0.78125 Z M 1.203125 -0.78125 "/></g></g><g style="fill:#000000;fill-opacity:1;"><g transform="translate(14.253732, 18.53068)"><path style="stroke:none" d="M 1.734375 -0.421875 C 1.796875 -0.460938 1.84375 -0.476562 1.875 -0.46875 C 1.914062 -0.457031 1.9375 -0.421875 1.9375 -0.359375 C 1.945312 -0.328125 1.945312 -0.300781 1.9375 -0.28125 C 1.925781 -0.257812 1.910156 -0.238281 1.890625 -0.21875 C 1.878906 -0.207031 1.863281 -0.191406 1.84375 -0.171875 C 1.820312 -0.148438 1.800781 -0.132812 1.78125 -0.125 C 1.769531 -0.113281 1.75 -0.0976562 1.71875 -0.078125 C 1.6875 -0.0664062 1.671875 -0.0546875 1.671875 -0.046875 C 1.609375 -0.015625 1.546875 0.015625 1.484375 0.046875 C 1.484375 0.046875 1.476562 0.046875 1.46875 0.046875 C 1.457031 0.0546875 1.445312 0.0625 1.4375 0.0625 C 1.425781 0.0703125 1.414062 0.078125 1.40625 0.078125 C 1.394531 0.078125 1.390625 0.0820312 1.390625 0.09375 L 1.375 0.09375 C 1.226562 0.15625 1.066406 0.191406 0.890625 0.203125 C 0.710938 0.210938 0.582031 0.195312 0.5 0.15625 C 0.488281 0.144531 0.445312 0.125 0.375 0.09375 C 0.3125 0.0703125 0.265625 0.046875 0.234375 0.015625 C 0.179688 -0.015625 0.128906 -0.09375 0.078125 -0.21875 C -0.0234375 -0.4375 -0.078125 -0.632812 -0.078125 -0.8125 C -0.078125 -0.914062 -0.0546875 -1.050781 -0.015625 -1.21875 C -0.015625 -1.226562 -0.0078125 -1.25 0 -1.28125 C 0 -1.3125 0 -1.332031 0 -1.34375 C 0.0078125 -1.363281 0.0195312 -1.382812 0.03125 -1.40625 C 0.0390625 -1.4375 0.046875 -1.460938 0.046875 -1.484375 C 0.0546875 -1.503906 0.0664062 -1.523438 0.078125 -1.546875 C 0.0859375 -1.566406 0.0976562 -1.585938 0.109375 -1.609375 C 0.160156 -1.679688 0.203125 -1.734375 0.234375 -1.765625 C 0.367188 -1.898438 0.539062 -1.960938 0.75 -1.953125 C 0.957031 -1.929688 1.070312 -1.859375 1.09375 -1.734375 C 1.101562 -1.640625 1.09375 -1.539062 1.0625 -1.4375 C 1.039062 -1.332031 1.007812 -1.242188 0.96875 -1.171875 C 0.9375 -1.109375 0.882812 -1.023438 0.8125 -0.921875 C 0.75 -0.816406 0.703125 -0.738281 0.671875 -0.6875 C 0.554688 -0.476562 0.5 -0.351562 0.5 -0.3125 C 0.5 -0.28125 0.53125 -0.234375 0.59375 -0.171875 C 0.632812 -0.140625 0.671875 -0.117188 0.703125 -0.109375 C 0.734375 -0.0976562 0.789062 -0.101562 0.875 -0.125 C 1 -0.132812 1.140625 -0.164062 1.296875 -0.21875 C 1.347656 -0.238281 1.425781 -0.269531 1.53125 -0.3125 C 1.644531 -0.363281 1.710938 -0.398438 1.734375 -0.421875 Z M 0.296875 -0.671875 C 0.328125 -0.671875 0.390625 -0.769531 0.484375 -0.96875 C 0.585938 -1.15625 0.640625 -1.269531 0.640625 -1.3125 C 0.640625 -1.363281 0.613281 -1.394531 0.5625 -1.40625 C 0.507812 -1.414062 0.46875 -1.40625 0.4375 -1.375 C 0.414062 -1.34375 0.390625 -1.296875 0.359375 -1.234375 C 0.335938 -1.171875 0.320312 -1.113281 0.3125 -1.0625 C 0.289062 -1 0.28125 -0.9375 0.28125 -0.875 C 0.269531 -0.820312 0.265625 -0.773438 0.265625 -0.734375 C 0.273438 -0.691406 0.285156 -0.671875 0.296875 -0.671875 Z M 0.296875 -0.671875 "/></g></g><g style="fill:#000000;fill-opacity:1;"><g transform="translate(15.923178, 18.53068)"><path style="stroke:none" d="M 3.28125 -0.5625 C 3.332031 -0.601562 3.378906 -0.617188 3.421875 -0.609375 C 3.460938 -0.609375 3.484375 -0.570312 3.484375 -0.5 C 3.484375 -0.476562 3.476562 -0.457031 3.46875 -0.4375 C 3.457031 -0.414062 3.445312 -0.394531 3.4375 -0.375 C 3.425781 -0.363281 3.40625 -0.347656 3.375 -0.328125 C 3.351562 -0.304688 3.332031 -0.289062 3.3125 -0.28125 C 3.300781 -0.269531 3.28125 -0.253906 3.25 -0.234375 C 3.226562 -0.210938 3.210938 -0.203125 3.203125 -0.203125 C 3.128906 -0.148438 3.054688 -0.09375 2.984375 -0.03125 C 2.890625 0.0390625 2.789062 0.09375 2.6875 0.125 C 2.5625 0.15625 2.46875 0.175781 2.40625 0.1875 C 2.332031 0.1875 2.242188 0.171875 2.140625 0.140625 C 2.046875 0.117188 1.96875 0.0859375 1.90625 0.046875 C 1.851562 0.00390625 1.8125 -0.046875 1.78125 -0.109375 C 1.75 -0.179688 1.734375 -0.265625 1.734375 -0.359375 C 1.734375 -0.453125 1.742188 -0.5625 1.765625 -0.6875 C 1.785156 -0.8125 1.820312 -0.960938 1.875 -1.140625 C 1.894531 -1.179688 1.890625 -1.203125 1.859375 -1.203125 C 1.796875 -1.203125 1.664062 -1.082031 1.46875 -0.84375 C 1.28125 -0.613281 1.132812 -0.394531 1.03125 -0.1875 C 0.957031 -0.0390625 0.894531 0.0390625 0.84375 0.0625 C 0.789062 0.09375 0.734375 0.0820312 0.671875 0.03125 C 0.617188 -0.0195312 0.59375 -0.0664062 0.59375 -0.109375 C 0.601562 -0.148438 0.640625 -0.242188 0.703125 -0.390625 C 0.753906 -0.492188 0.78125 -0.5625 0.78125 -0.59375 C 0.78125 -0.632812 0.804688 -0.707031 0.859375 -0.8125 C 0.890625 -0.9375 0.898438 -1.003906 0.890625 -1.015625 C 0.859375 -1.015625 0.800781 -0.96875 0.71875 -0.875 C 0.644531 -0.789062 0.5625 -0.6875 0.46875 -0.5625 C 0.382812 -0.4375 0.320312 -0.332031 0.28125 -0.25 C 0.207031 -0.125 0.140625 -0.0390625 0.078125 0 C 0.0234375 0.03125 -0.0234375 0.0195312 -0.078125 -0.03125 C -0.140625 -0.0820312 -0.160156 -0.144531 -0.140625 -0.21875 C -0.128906 -0.289062 -0.0820312 -0.410156 0 -0.578125 C 0.0195312 -0.628906 0.0390625 -0.703125 0.0625 -0.796875 C 0.09375 -0.898438 0.117188 -0.972656 0.140625 -1.015625 C 0.222656 -1.191406 0.3125 -1.316406 0.40625 -1.390625 C 0.425781 -1.410156 0.445312 -1.425781 0.46875 -1.4375 C 0.5 -1.445312 0.523438 -1.453125 0.546875 -1.453125 C 0.578125 -1.460938 0.597656 -1.457031 0.609375 -1.4375 C 0.617188 -1.414062 0.617188 -1.382812 0.609375 -1.34375 C 0.578125 -1.257812 0.582031 -1.222656 0.625 -1.234375 C 0.65625 -1.234375 0.691406 -1.265625 0.734375 -1.328125 C 0.785156 -1.421875 0.851562 -1.492188 0.9375 -1.546875 C 0.96875 -1.566406 0.988281 -1.582031 1 -1.59375 C 1.03125 -1.601562 1.050781 -1.609375 1.0625 -1.609375 C 1.070312 -1.617188 1.085938 -1.617188 1.109375 -1.609375 C 1.128906 -1.609375 1.144531 -1.609375 1.15625 -1.609375 C 1.164062 -1.609375 1.1875 -1.601562 1.21875 -1.59375 C 1.25 -1.582031 1.269531 -1.578125 1.28125 -1.578125 C 1.351562 -1.554688 1.390625 -1.535156 1.390625 -1.515625 C 1.398438 -1.503906 1.40625 -1.46875 1.40625 -1.40625 C 1.40625 -1.375 1.410156 -1.347656 1.421875 -1.328125 C 1.429688 -1.316406 1.445312 -1.3125 1.46875 -1.3125 C 1.488281 -1.3125 1.515625 -1.316406 1.546875 -1.328125 C 1.578125 -1.347656 1.625 -1.378906 1.6875 -1.421875 C 1.84375 -1.515625 1.972656 -1.570312 2.078125 -1.59375 C 2.148438 -1.59375 2.195312 -1.585938 2.21875 -1.578125 C 2.238281 -1.566406 2.257812 -1.539062 2.28125 -1.5 C 2.3125 -1.414062 2.316406 -1.316406 2.296875 -1.203125 C 2.285156 -1.085938 2.253906 -0.976562 2.203125 -0.875 C 2.148438 -0.769531 2.125 -0.691406 2.125 -0.640625 C 2.125 -0.585938 2.109375 -0.519531 2.078125 -0.4375 C 2.054688 -0.363281 2.0625 -0.296875 2.09375 -0.234375 C 2.132812 -0.171875 2.191406 -0.128906 2.265625 -0.109375 C 2.304688 -0.0976562 2.363281 -0.101562 2.4375 -0.125 C 2.457031 -0.125 2.578125 -0.171875 2.796875 -0.265625 C 2.796875 -0.265625 2.820312 -0.28125 2.875 -0.3125 C 2.914062 -0.34375 2.960938 -0.367188 3.015625 -0.390625 C 3.066406 -0.421875 3.117188 -0.453125 3.171875 -0.484375 C 3.222656 -0.523438 3.257812 -0.550781 3.28125 -0.5625 Z M 3.28125 -0.5625 "/></g></g><g style="fill:#000000;fill-opacity:1;"><g transform="translate(19.212042, 18.53068)"><path style="stroke:none" d="M 1.90625 -0.703125 C 1.957031 -0.742188 2.003906 -0.757812 2.046875 -0.75 C 2.085938 -0.75 2.109375 -0.710938 2.109375 -0.640625 C 2.109375 -0.617188 2.101562 -0.597656 2.09375 -0.578125 C 2.09375 -0.566406 2.085938 -0.550781 2.078125 -0.53125 C 2.066406 -0.519531 2.054688 -0.507812 2.046875 -0.5 C 2.035156 -0.488281 2.019531 -0.472656 2 -0.453125 C 1.988281 -0.441406 1.972656 -0.429688 1.953125 -0.421875 C 1.941406 -0.410156 1.929688 -0.398438 1.921875 -0.390625 C 1.910156 -0.378906 1.894531 -0.367188 1.875 -0.359375 C 1.851562 -0.347656 1.84375 -0.34375 1.84375 -0.34375 C 1.78125 -0.300781 1.71875 -0.265625 1.65625 -0.234375 C 1.644531 -0.234375 1.628906 -0.226562 1.609375 -0.21875 C 1.546875 -0.144531 1.488281 -0.0976562 1.4375 -0.078125 C 1.382812 -0.0546875 1.316406 -0.046875 1.234375 -0.046875 C 1.148438 -0.015625 1.09375 -0.015625 1.0625 -0.046875 C 1.050781 -0.046875 1.019531 -0.046875 0.96875 -0.046875 C 0.925781 -0.0546875 0.894531 -0.0625 0.875 -0.0625 C 0.863281 -0.0625 0.835938 -0.0625 0.796875 -0.0625 C 0.765625 -0.0625 0.734375 -0.0546875 0.703125 -0.046875 C 0.679688 -0.046875 0.660156 -0.0390625 0.640625 -0.03125 C 0.597656 -0.0078125 0.550781 0 0.5 0 C 0.457031 0 0.375 -0.0078125 0.25 -0.03125 C 0.164062 -0.0390625 0.09375 -0.0507812 0.03125 -0.0625 C 0.0195312 -0.0625 0.0078125 -0.0625 0 -0.0625 C -0.0195312 -0.0625 -0.0351562 -0.0625 -0.046875 -0.0625 C -0.0664062 -0.0625 -0.0820312 -0.0664062 -0.09375 -0.078125 C -0.125 -0.0859375 -0.15625 -0.148438 -0.1875 -0.265625 C -0.207031 -0.335938 -0.222656 -0.410156 -0.234375 -0.484375 C -0.234375 -0.503906 -0.234375 -0.523438 -0.234375 -0.546875 C -0.222656 -0.609375 -0.203125 -0.644531 -0.171875 -0.65625 C -0.160156 -0.664062 -0.140625 -0.671875 -0.109375 -0.671875 C -0.0859375 -0.679688 -0.0703125 -0.691406 -0.0625 -0.703125 C -0.0390625 -0.722656 -0.0195312 -0.75 0 -0.78125 C 0.0078125 -0.832031 0.015625 -0.878906 0.015625 -0.921875 C 0.0234375 -0.960938 0.03125 -0.988281 0.03125 -1 C 0.0390625 -1.007812 0.0625 -1.019531 0.09375 -1.03125 C 0.125 -1.050781 0.140625 -1.066406 0.140625 -1.078125 C 0.171875 -1.097656 0.195312 -1.128906 0.21875 -1.171875 C 0.226562 -1.191406 0.25 -1.257812 0.28125 -1.375 C 0.300781 -1.46875 0.320312 -1.5625 0.34375 -1.65625 C 0.351562 -1.75 0.363281 -1.832031 0.375 -1.90625 C 0.382812 -2.0625 0.398438 -2.148438 0.421875 -2.171875 C 0.441406 -2.203125 0.484375 -2.210938 0.546875 -2.203125 C 0.609375 -2.203125 0.660156 -2.1875 0.703125 -2.15625 C 0.710938 -2.144531 0.726562 -2.125 0.75 -2.09375 C 0.769531 -2.070312 0.78125 -2.050781 0.78125 -2.03125 C 0.789062 -2.007812 0.800781 -1.976562 0.8125 -1.9375 C 0.820312 -1.894531 0.832031 -1.867188 0.84375 -1.859375 C 0.882812 -1.722656 0.914062 -1.597656 0.9375 -1.484375 C 0.9375 -1.441406 0.941406 -1.375 0.953125 -1.28125 C 0.960938 -1.195312 0.972656 -1.117188 0.984375 -1.046875 C 1.003906 -0.984375 1.023438 -0.921875 1.046875 -0.859375 C 1.085938 -0.753906 1.097656 -0.660156 1.078125 -0.578125 C 1.078125 -0.523438 1.078125 -0.472656 1.078125 -0.421875 C 1.078125 -0.378906 1.09375 -0.34375 1.125 -0.3125 C 1.15625 -0.28125 1.203125 -0.265625 1.265625 -0.265625 C 1.285156 -0.273438 1.3125 -0.28125 1.34375 -0.28125 C 1.375 -0.289062 1.394531 -0.300781 1.40625 -0.3125 C 1.425781 -0.320312 1.453125 -0.335938 1.484375 -0.359375 C 1.515625 -0.390625 1.535156 -0.40625 1.546875 -0.40625 C 1.554688 -0.414062 1.578125 -0.4375 1.609375 -0.46875 C 1.640625 -0.5 1.691406 -0.539062 1.765625 -0.59375 C 1.847656 -0.65625 1.894531 -0.691406 1.90625 -0.703125 Z M 0.5625 -0.453125 C 0.664062 -0.472656 0.726562 -0.523438 0.75 -0.609375 C 0.769531 -0.691406 0.75 -0.832031 0.6875 -1.03125 C 0.625 -1.207031 0.585938 -1.296875 0.578125 -1.296875 C 0.554688 -1.296875 0.539062 -1.257812 0.53125 -1.1875 C 0.507812 -1.125 0.488281 -1.078125 0.46875 -1.046875 C 0.4375 -1.003906 0.390625 -0.914062 0.328125 -0.78125 C 0.265625 -0.644531 0.238281 -0.570312 0.25 -0.5625 C 0.257812 -0.539062 0.28125 -0.519531 0.3125 -0.5 C 0.351562 -0.476562 0.394531 -0.460938 0.4375 -0.453125 C 0.488281 -0.441406 0.53125 -0.441406 0.5625 -0.453125 Z M 0.5625 -0.453125 "/></g></g></g></svg>